{
	"asset":{
		"generator":"Khronos glTF Blender I/O v4.1.63",
		"version":"2.0"
	},
	"scene":0,
	"scenes":[
		{
			"name":"Scene",
			"nodes":[
				7
			]
		}
	],
	"nodes":[
		{
			"name":"Sphere.001_1",
			"rotation":[
				0.19318971037864685,
				-0.21887649595737457,
				0.03906266391277313,
				0.9556384682655334
			],
			"scale":[
				100.00007629394531,
				100.00000762939453,
				100.00000762939453
			],
			"translation":[
				3.0517578125e-05,
				0.000244140625,
				0
			]
		},
		{
			"mesh":0,
			"name":"Object_8"
		},
		{
			"children":[
				1
			],
			"name":"Sphere.002_2",
			"rotation":[
				0.02308657392859459,
				-0.5311452746391296,
				0.12500625848770142,
				0.8376904129981995
			],
			"scale":[
				100.00009155273438,
				100.00000762939453,
				100.0000228881836
			],
			"translation":[
				3.0517578125e-05,
				0.000244140625,
				0
			]
		},
		{
			"mesh":1,
			"name":"Object_4",
			"translation":[
				-6.139944076538086,
				-2.8800830841064453,
				7.300075531005859
			]
		},
		{
			"children":[
				3
			],
			"name":"Sphere_0",
			"rotation":[
				0.1803327053785324,
				0.16296660900115967,
				-0.9696469306945801,
				0.026588164269924164
			],
			"scale":[
				0.9985379576683044,
				0.9985377192497253,
				0.9985374808311462
			],
			"translation":[
				-0.511199951171875,
				-3.320556640625,
				-0.13414621353149414
			]
		},
		{
			"children":[
				0,
				2,
				4
			],
			"name":"GLTF_SceneRootNode",
			"rotation":[
				0.70710688829422,
				0,
				0,
				0.7071066498756409
			],
			"translation":[
				3.0517578125e-05,
				0,
				-0.000244140625
			]
		},
		{
			"children":[
				5
			],
			"name":"root",
			"translation":[
				3.0517578125e-05,
				0,
				-0.000244140625
			]
		},
		{
			"children":[
				6
			],
			"name":"Sketchfab_model",
			"rotation":[
				0,
				-0.7071068286895752,
				0.7071068286895752,
				1.001535330253731e-16
			],
			"scale":[
				0.0030803068075329065,
				0.003080306574702263,
				0.003080306574702263
			],
			"translation":[
				-1.0065587759017944,
				-6.610780715942383,
				0
			]
		}
	],
	"materials":[
		{
			"emissiveFactor":[
				1,
				1,
				1
			],
			"emissiveTexture":{
				"index":0
			},
			"name":"Material.001",
			"pbrMetallicRoughness":{
				"baseColorFactor":[
					0,
					0,
					0,
					1
				],
				"baseColorTexture":{
					"index":1
				},
				"metallicFactor":0,
				"roughnessFactor":0
			}
		},
		{
			"emissiveFactor":[
				1,
				1,
				1
			],
			"emissiveTexture":{
				"index":2
			},
			"name":"material",
			"pbrMetallicRoughness":{
				"baseColorFactor":[
					0,
					0,
					0,
					1
				],
				"metallicFactor":0,
				"roughnessFactor":0
			}
		}
	],
	"meshes":[
		{
			"name":"Object_2",
			"primitives":[
				{
					"attributes":{
						"POSITION":0,
						"NORMAL":1,
						"TEXCOORD_0":2
					},
					"indices":3,
					"material":0
				}
			]
		},
		{
			"name":"Object_0",
			"primitives":[
				{
					"attributes":{
						"POSITION":4,
						"NORMAL":5,
						"TEXCOORD_0":6
					},
					"indices":7,
					"material":1
				}
			]
		}
	],
	"textures":[
		{
			"sampler":0,
			"source":0
		},
		{
			"sampler":0,
			"source":0
		},
		{
			"sampler":1,
			"source":1
		}
	],
	"images":[
		{
			"mimeType":"image/png",
			"name":"Material_baseColor",
			"uri":"Material_baseColor.png"
		},
		{
			"mimeType":"image/png",
			"name":"material_emissive",
			"uri":"material_emissive.png"
		}
	],
	"accessors":[
		{
			"bufferView":0,
			"componentType":5126,
			"count":2024,
			"max":[
				0.9999997019767761,
				1,
				0.9999994039535522
			],
			"min":[
				-0.9999990463256836,
				-1,
				-0.9999987483024597
			],
			"type":"VEC3"
		},
		{
			"bufferView":1,
			"componentType":5126,
			"count":2024,
			"type":"VEC3"
		},
		{
			"bufferView":2,
			"componentType":5126,
			"count":2024,
			"type":"VEC2"
		},
		{
			"bufferView":3,
			"componentType":5123,
			"count":2880,
			"type":"SCALAR"
		},
		{
			"bufferView":4,
			"componentType":5126,
			"count":401,
			"max":[
				9999.9990234375,
				10000,
				9999.9990234375
			],
			"min":[
				-9999.998046875,
				-10000,
				-9999.9970703125
			],
			"type":"VEC3"
		},
		{
			"bufferView":5,
			"componentType":5126,
			"count":401,
			"type":"VEC3"
		},
		{
			"bufferView":6,
			"componentType":5126,
			"count":401,
			"type":"VEC2"
		},
		{
			"bufferView":7,
			"componentType":5123,
			"count":2160,
			"type":"SCALAR"
		}
	],
	"bufferViews":[
		{
			"buffer":0,
			"byteLength":24288,
			"byteOffset":0,
			"target":34962
		},
		{
			"buffer":0,
			"byteLength":24288,
			"byteOffset":24288,
			"target":34962
		},
		{
			"buffer":0,
			"byteLength":16192,
			"byteOffset":48576,
			"target":34962
		},
		{
			"buffer":0,
			"byteLength":5760,
			"byteOffset":64768,
			"target":34963
		},
		{
			"buffer":0,
			"byteLength":4812,
			"byteOffset":70528,
			"target":34962
		},
		{
			"buffer":0,
			"byteLength":4812,
			"byteOffset":75340,
			"target":34962
		},
		{
			"buffer":0,
			"byteLength":3208,
			"byteOffset":80152,
			"target":34962
		},
		{
			"buffer":0,
			"byteLength":4320,
			"byteOffset":83360,
			"target":34963
		}
	],
	"samplers":[
		{
			"magFilter":9729,
			"minFilter":9987
		},
		{
			"magFilter":9729,
			"minFilter":9987,
			"wrapS":33071,
			"wrapT":33071
		}
	],
	"buffers":[
		{
			"byteLength":87680,
			"uri":"scene.bin"
		}
	]
}
