{
	"asset":{
		"generator":"Khronos glTF Blender I/O v4.1.63",
		"version":"2.0"
	},
	"scene":0,
	"scenes":[
		{
			"name":"Scene",
			"nodes":[
				0,
				1,
				2
			]
		}
	],
	"nodes":[
		{
			"mesh":0,
			"name":"\u041e\u043a\u0440\u0443\u0436\u043d\u043e\u0441\u0442\u044c",
			"rotation":[
				0,
				-0.9790951013565063,
				0,
				0.20340293645858765
			],
			"translation":[
				0.02265021950006485,
				0,
				0.1090284213423729
			]
		},
		{
			"mesh":1,
			"name":"\u041e\u043a\u0440\u0443\u0436\u043d\u043e\u0441\u0442\u044c.001",
			"rotation":[
				0,
				-0.9790951013565063,
				0,
				0.20340293645858765
			],
			"translation":[
				0.02265021950006485,
				0,
				0.1090284213423729
			]
		},
		{
			"mesh":2,
			"name":"\u041e\u043a\u0440\u0443\u0436\u043d\u043e\u0441\u0442\u044c.002",
			"rotation":[
				0,
				-0.9790951013565063,
				0,
				0.20340293645858765
			],
			"translation":[
				0.02265021950006485,
				0,
				0.1090284213423729
			]
		}
	],
	"animations":[
		{
			"channels":[
				{
					"sampler":0,
					"target":{
						"node":0,
						"path":"translation"
					}
				},
				{
					"sampler":1,
					"target":{
						"node":0,
						"path":"rotation"
					}
				},
				{
					"sampler":2,
					"target":{
						"node":0,
						"path":"scale"
					}
				}
			],
			"name":"\u041e\u043a\u0440\u0443\u0436\u043d\u043e\u0441\u0442\u044c|\u041e\u043a\u0440\u0443\u0436\u043d\u043e\u0441\u0442\u044c|Action",
			"samplers":[
				{
					"input":12,
					"interpolation":"LINEAR",
					"output":13
				},
				{
					"input":12,
					"interpolation":"LINEAR",
					"output":14
				},
				{
					"input":15,
					"interpolation":"STEP",
					"output":16
				}
			]
		},
		{
			"channels":[
				{
					"sampler":0,
					"target":{
						"node":1,
						"path":"translation"
					}
				},
				{
					"sampler":1,
					"target":{
						"node":1,
						"path":"rotation"
					}
				},
				{
					"sampler":2,
					"target":{
						"node":1,
						"path":"scale"
					}
				}
			],
			"name":"\u041e\u043a\u0440\u0443\u0436\u043d\u043e\u0441\u0442\u044c.001|\u041e\u043a\u0440\u0443\u0436\u043d\u043e\u0441\u0442\u044c.001|Action",
			"samplers":[
				{
					"input":12,
					"interpolation":"LINEAR",
					"output":17
				},
				{
					"input":12,
					"interpolation":"LINEAR",
					"output":18
				},
				{
					"input":15,
					"interpolation":"STEP",
					"output":19
				}
			]
		},
		{
			"channels":[
				{
					"sampler":0,
					"target":{
						"node":2,
						"path":"translation"
					}
				},
				{
					"sampler":1,
					"target":{
						"node":2,
						"path":"rotation"
					}
				},
				{
					"sampler":2,
					"target":{
						"node":2,
						"path":"scale"
					}
				}
			],
			"name":"\u041e\u043a\u0440\u0443\u0436\u043d\u043e\u0441\u0442\u044c.002|\u041e\u043a\u0440\u0443\u0436\u043d\u043e\u0441\u0442\u044c.002|Action",
			"samplers":[
				{
					"input":12,
					"interpolation":"LINEAR",
					"output":20
				},
				{
					"input":12,
					"interpolation":"LINEAR",
					"output":21
				},
				{
					"input":15,
					"interpolation":"STEP",
					"output":22
				}
			]
		}
	],
	"materials":[
		{
			"doubleSided":true,
			"name":"\u041c\u0430\u0442\u0435\u0440\u0438\u0430\u043b",
			"pbrMetallicRoughness":{
				"baseColorFactor":[
					0.800000011920929,
					0.800000011920929,
					0.800000011920929,
					1
				],
				"metallicFactor":0,
				"roughnessFactor":0.4000000059604645
			}
		},
		{
			"doubleSided":true,
			"name":"\u041c\u0430\u0442\u0435\u0440\u0438\u0430\u043b.001",
			"pbrMetallicRoughness":{
				"baseColorFactor":[
					0.800000011920929,
					0.800000011920929,
					0.800000011920929,
					1
				],
				"metallicFactor":0,
				"roughnessFactor":0.4000000059604645
			}
		},
		{
			"doubleSided":true,
			"name":"\u041c\u0430\u0442\u0435\u0440\u0438\u0430\u043b.002",
			"pbrMetallicRoughness":{
				"baseColorFactor":[
					0.800000011920929,
					0.800000011920929,
					0.800000011920929,
					1
				],
				"metallicFactor":0,
				"roughnessFactor":0.4000000059604645
			}
		}
	],
	"meshes":[
		{
			"name":"\u041e\u043a\u0440\u0443\u0436\u043d\u043e\u0441\u0442\u044c.001",
			"primitives":[
				{
					"attributes":{
						"POSITION":0,
						"NORMAL":1,
						"TEXCOORD_0":2
					},
					"indices":3,
					"material":0
				}
			]
		},
		{
			"name":"\u041e\u043a\u0440\u0443\u0436\u043d\u043e\u0441\u0442\u044c.002",
			"primitives":[
				{
					"attributes":{
						"POSITION":4,
						"NORMAL":5,
						"TEXCOORD_0":6
					},
					"indices":7,
					"material":1
				}
			]
		},
		{
			"name":"\u041e\u043a\u0440\u0443\u0436\u043d\u043e\u0441\u0442\u044c.003",
			"primitives":[
				{
					"attributes":{
						"POSITION":8,
						"NORMAL":9,
						"TEXCOORD_0":10
					},
					"indices":11,
					"material":2
				}
			]
		}
	],
	"accessors":[
		{
			"bufferView":0,
			"componentType":5126,
			"count":10200,
			"max":[
				4.711809158325195,
				9.337532997131348,
				4.943171977996826
			],
			"min":[
				-4.711806774139404,
				0.7381843328475952,
				-4.943170547485352
			],
			"type":"VEC3"
		},
		{
			"bufferView":1,
			"componentType":5126,
			"count":10200,
			"type":"VEC3"
		},
		{
			"bufferView":2,
			"componentType":5126,
			"count":10200,
			"type":"VEC2"
		},
		{
			"bufferView":3,
			"componentType":5123,
			"count":15360,
			"type":"SCALAR"
		},
		{
			"bufferView":4,
			"componentType":5126,
			"count":7698,
			"max":[
				4.693241596221924,
				9.658530235290527,
				5.052138328552246
			],
			"min":[
				-4.652583122253418,
				0.5960984230041504,
				-5.035184383392334
			],
			"type":"VEC3"
		},
		{
			"bufferView":5,
			"componentType":5126,
			"count":7698,
			"type":"VEC3"
		},
		{
			"bufferView":6,
			"componentType":5126,
			"count":7698,
			"type":"VEC2"
		},
		{
			"bufferView":7,
			"componentType":5123,
			"count":11598,
			"type":"SCALAR"
		},
		{
			"bufferView":8,
			"componentType":5126,
			"count":7930,
			"max":[
				4.644296646118164,
				9.595876693725586,
				5.046417236328125
			],
			"min":[
				-4.638299942016602,
				0.6010112166404724,
				-5.047292232513428
			],
			"type":"VEC3"
		},
		{
			"bufferView":9,
			"componentType":5126,
			"count":7930,
			"type":"VEC3"
		},
		{
			"bufferView":10,
			"componentType":5126,
			"count":7930,
			"type":"VEC2"
		},
		{
			"bufferView":11,
			"componentType":5123,
			"count":11934,
			"type":"SCALAR"
		},
		{
			"bufferView":12,
			"componentType":5126,
			"count":10,
			"max":[
				0.4166666666666667
			],
			"min":[
				0.041666666666666664
			],
			"type":"SCALAR"
		},
		{
			"bufferView":13,
			"componentType":5126,
			"count":10,
			"type":"VEC3"
		},
		{
			"bufferView":14,
			"componentType":5126,
			"count":10,
			"type":"VEC4"
		},
		{
			"bufferView":15,
			"componentType":5126,
			"count":2,
			"max":[
				0.4166666666666667
			],
			"min":[
				0.041666666666666664
			],
			"type":"SCALAR"
		},
		{
			"bufferView":16,
			"componentType":5126,
			"count":2,
			"type":"VEC3"
		},
		{
			"bufferView":17,
			"componentType":5126,
			"count":10,
			"type":"VEC3"
		},
		{
			"bufferView":18,
			"componentType":5126,
			"count":10,
			"type":"VEC4"
		},
		{
			"bufferView":19,
			"componentType":5126,
			"count":2,
			"type":"VEC3"
		},
		{
			"bufferView":20,
			"componentType":5126,
			"count":10,
			"type":"VEC3"
		},
		{
			"bufferView":21,
			"componentType":5126,
			"count":10,
			"type":"VEC4"
		},
		{
			"bufferView":22,
			"componentType":5126,
			"count":2,
			"type":"VEC3"
		}
	],
	"bufferViews":[
		{
			"buffer":0,
			"byteLength":122400,
			"byteOffset":0,
			"target":34962
		},
		{
			"buffer":0,
			"byteLength":122400,
			"byteOffset":122400,
			"target":34962
		},
		{
			"buffer":0,
			"byteLength":81600,
			"byteOffset":244800,
			"target":34962
		},
		{
			"buffer":0,
			"byteLength":30720,
			"byteOffset":326400,
			"target":34963
		},
		{
			"buffer":0,
			"byteLength":92376,
			"byteOffset":357120,
			"target":34962
		},
		{
			"buffer":0,
			"byteLength":92376,
			"byteOffset":449496,
			"target":34962
		},
		{
			"buffer":0,
			"byteLength":61584,
			"byteOffset":541872,
			"target":34962
		},
		{
			"buffer":0,
			"byteLength":23196,
			"byteOffset":603456,
			"target":34963
		},
		{
			"buffer":0,
			"byteLength":95160,
			"byteOffset":626652,
			"target":34962
		},
		{
			"buffer":0,
			"byteLength":95160,
			"byteOffset":721812,
			"target":34962
		},
		{
			"buffer":0,
			"byteLength":63440,
			"byteOffset":816972,
			"target":34962
		},
		{
			"buffer":0,
			"byteLength":23868,
			"byteOffset":880412,
			"target":34963
		},
		{
			"buffer":0,
			"byteLength":40,
			"byteOffset":904280
		},
		{
			"buffer":0,
			"byteLength":120,
			"byteOffset":904320
		},
		{
			"buffer":0,
			"byteLength":160,
			"byteOffset":904440
		},
		{
			"buffer":0,
			"byteLength":8,
			"byteOffset":904600
		},
		{
			"buffer":0,
			"byteLength":24,
			"byteOffset":904608
		},
		{
			"buffer":0,
			"byteLength":120,
			"byteOffset":904632
		},
		{
			"buffer":0,
			"byteLength":160,
			"byteOffset":904752
		},
		{
			"buffer":0,
			"byteLength":24,
			"byteOffset":904912
		},
		{
			"buffer":0,
			"byteLength":120,
			"byteOffset":904936
		},
		{
			"buffer":0,
			"byteLength":160,
			"byteOffset":905056
		},
		{
			"buffer":0,
			"byteLength":24,
			"byteOffset":905216
		}
	],
	"buffers":[
		{
			"byteLength":905240,
			"uri":"scene.bin"
		}
	]
}
