{
	"asset":{
		"generator":"Khronos glTF Blender I/O v4.1.63",
		"version":"2.0"
	},
	"scene":0,
	"scenes":[
		{
			"name":"Scene",
			"nodes":[
				11,
				31
			]
		}
	],
	"nodes":[
		{
			"mesh":0,
			"name":"Flame0_0"
		},
		{
			"children":[
				0
			],
			"name":"Flame0",
			"rotation":[
				0,
				0,
				-0.7071068286895752,
				0.7071068286895752
			],
			"scale":[
				1,
				1,
				1.0139001607894897
			]
		},
		{
			"mesh":1,
			"name":"Flame1_0"
		},
		{
			"children":[
				2
			],
			"name":"Flame1",
			"scale":[
				1,
				1,
				1.1002198457717896
			]
		},
		{
			"mesh":2,
			"name":"Flame2_0"
		},
		{
			"children":[
				4
			],
			"name":"Flame2",
			"rotation":[
				0,
				0,
				-1,
				0
			],
			"scale":[
				1,
				1,
				1.0515899658203125
			]
		},
		{
			"mesh":3,
			"name":"Flame3_0"
		},
		{
			"children":[
				6
			],
			"name":"Flame3",
			"rotation":[
				0,
				0,
				0.7071068286895752,
				0.7071068286895752
			],
			"scale":[
				1,
				1,
				1.0291799306869507
			]
		},
		{
			"name":"Lamp.001"
		},
		{
			"children":[
				8
			],
			"name":"Lamp",
			"rotation":[
				0.16907529532909393,
				0.27217087149620056,
				0.7558793425559998,
				0.5709494352340698
			],
			"scale":[
				0.9999976754188538,
				0.9999959468841553,
				0.9999961256980896
			],
			"translation":[
				4.076250076293945,
				1.0054500102996826,
				5.9038591384887695
			]
		},
		{
			"children":[
				1,
				3,
				5,
				7,
				9
			],
			"name":"Root"
		},
		{
			"children":[
				10
			],
			"name":"Sketchfab_model",
			"rotation":[
				-0.9999176859855652,
				0,
				0,
				0.012830442748963833
			],
			"scale":[
				0.5,
				0.5000001192092896,
				0.5000001192092896
			],
			"translation":[
				0,
				0,
				-0.7400000095367432
			]
		},
		{
			"mesh":4,
			"name":"defaultMaterial"
		},
		{
			"children":[
				12
			],
			"name":"ai_low1"
		},
		{
			"mesh":5,
			"name":"defaultMaterial.006"
		},
		{
			"children":[
				14
			],
			"name":"b_low1"
		},
		{
			"mesh":6,
			"name":"defaultMaterial.007"
		},
		{
			"children":[
				16
			],
			"name":"g_low1"
		},
		{
			"mesh":7,
			"name":"defaultMaterial.002"
		},
		{
			"children":[
				18
			],
			"name":"m_low1"
		},
		{
			"mesh":8,
			"name":"defaultMaterial.005"
		},
		{
			"children":[
				20
			],
			"name":"p_low3"
		},
		{
			"mesh":9,
			"name":"defaultMaterial.004"
		},
		{
			"children":[
				22
			],
			"name":"r_low1"
		},
		{
			"mesh":10,
			"name":"defaultMaterial.001"
		},
		{
			"children":[
				24
			],
			"name":"s_low1"
		},
		{
			"mesh":11,
			"name":"defaultMaterial.008"
		},
		{
			"children":[
				26
			],
			"name":"t_low1"
		},
		{
			"mesh":12,
			"name":"defaultMaterial.003"
		},
		{
			"children":[
				28
			],
			"name":"v_low1"
		},
		{
			"children":[
				13,
				15,
				17,
				19,
				21,
				23,
				25,
				27,
				29
			],
			"name":"Collada visual scene group",
			"rotation":[
				0.70710688829422,
				0,
				0,
				0.7071066498756409
			]
		},
		{
			"children":[
				30
			],
			"name":"Sketchfab_model.001",
			"rotation":[
				-0.70710688829422,
				0,
				0,
				0.7071066498756409
			]
		}
	],
	"animations":[
		{
			"channels":[
				{
					"sampler":0,
					"target":{
						"node":1,
						"path":"rotation"
					}
				},
				{
					"sampler":1,
					"target":{
						"node":1,
						"path":"scale"
					}
				}
			],
			"name":"Flame0",
			"samplers":[
				{
					"input":49,
					"interpolation":"LINEAR",
					"output":50
				},
				{
					"input":49,
					"interpolation":"LINEAR",
					"output":51
				}
			]
		},
		{
			"channels":[
				{
					"sampler":0,
					"target":{
						"node":3,
						"path":"rotation"
					}
				},
				{
					"sampler":1,
					"target":{
						"node":3,
						"path":"scale"
					}
				}
			],
			"name":"Flame1",
			"samplers":[
				{
					"input":49,
					"interpolation":"LINEAR",
					"output":52
				},
				{
					"input":49,
					"interpolation":"LINEAR",
					"output":53
				}
			]
		},
		{
			"channels":[
				{
					"sampler":0,
					"target":{
						"node":5,
						"path":"rotation"
					}
				},
				{
					"sampler":1,
					"target":{
						"node":5,
						"path":"scale"
					}
				}
			],
			"name":"Flame2",
			"samplers":[
				{
					"input":49,
					"interpolation":"LINEAR",
					"output":54
				},
				{
					"input":49,
					"interpolation":"LINEAR",
					"output":55
				}
			]
		},
		{
			"channels":[
				{
					"sampler":0,
					"target":{
						"node":7,
						"path":"rotation"
					}
				},
				{
					"sampler":1,
					"target":{
						"node":7,
						"path":"scale"
					}
				}
			],
			"name":"Flame3",
			"samplers":[
				{
					"input":49,
					"interpolation":"LINEAR",
					"output":56
				},
				{
					"input":49,
					"interpolation":"LINEAR",
					"output":57
				}
			]
		}
	],
	"materials":[
		{
			"alphaMode":"BLEND",
			"emissiveFactor":[
				1,
				1,
				1
			],
			"emissiveTexture":{
				"index":0
			},
			"name":"MaterialFire",
			"pbrMetallicRoughness":{
				"baseColorFactor":[
					1,
					1,
					1,
					0.36000001430511475
				],
				"baseColorTexture":{
					"index":1
				},
				"metallicFactor":0.4399999976158142,
				"metallicRoughnessTexture":{
					"index":2
				},
				"roughnessFactor":0.49000000953674316
			}
		},
		{
			"doubleSided":true,
			"emissiveFactor":[
				1,
				1,
				1
			],
			"emissiveTexture":{
				"index":3
			},
			"name":"lambert1",
			"normalTexture":{
				"index":4
			},
			"occlusionTexture":{
				"index":5
			},
			"pbrMetallicRoughness":{
				"baseColorTexture":{
					"index":6
				},
				"metallicRoughnessTexture":{
					"index":5
				}
			}
		},
		{
			"alphaMode":"BLEND",
			"doubleSided":true,
			"name":"blinn1",
			"normalTexture":{
				"index":7
			},
			"occlusionTexture":{
				"index":8
			},
			"pbrMetallicRoughness":{
				"baseColorTexture":{
					"index":9
				},
				"metallicRoughnessTexture":{
					"index":8
				}
			}
		}
	],
	"meshes":[
		{
			"name":"Flame0_0",
			"primitives":[
				{
					"attributes":{
						"POSITION":0,
						"NORMAL":1,
						"TEXCOORD_0":2
					},
					"indices":3,
					"material":0
				}
			]
		},
		{
			"name":"Flame1_0",
			"primitives":[
				{
					"attributes":{
						"POSITION":4,
						"NORMAL":5,
						"TEXCOORD_0":6
					},
					"indices":3,
					"material":0
				}
			]
		},
		{
			"name":"Flame2_0",
			"primitives":[
				{
					"attributes":{
						"POSITION":7,
						"NORMAL":8,
						"TEXCOORD_0":9
					},
					"indices":3,
					"material":0
				}
			]
		},
		{
			"name":"Flame3_0",
			"primitives":[
				{
					"attributes":{
						"POSITION":10,
						"NORMAL":11,
						"TEXCOORD_0":12
					},
					"indices":3,
					"material":0
				}
			]
		},
		{
			"name":"defaultMaterial",
			"primitives":[
				{
					"attributes":{
						"POSITION":13,
						"NORMAL":14,
						"TEXCOORD_0":15
					},
					"indices":16,
					"material":1
				}
			]
		},
		{
			"name":"defaultMaterial.006",
			"primitives":[
				{
					"attributes":{
						"POSITION":17,
						"NORMAL":18,
						"TEXCOORD_0":19
					},
					"indices":20,
					"material":1
				}
			]
		},
		{
			"name":"defaultMaterial.007",
			"primitives":[
				{
					"attributes":{
						"POSITION":21,
						"NORMAL":22,
						"TEXCOORD_0":23
					},
					"indices":24,
					"material":1
				}
			]
		},
		{
			"name":"defaultMaterial.002",
			"primitives":[
				{
					"attributes":{
						"POSITION":25,
						"NORMAL":26,
						"TEXCOORD_0":27
					},
					"indices":28,
					"material":1
				}
			]
		},
		{
			"name":"defaultMaterial.005",
			"primitives":[
				{
					"attributes":{
						"POSITION":29,
						"NORMAL":30,
						"TEXCOORD_0":31
					},
					"indices":32,
					"material":1
				}
			]
		},
		{
			"name":"defaultMaterial.004",
			"primitives":[
				{
					"attributes":{
						"POSITION":33,
						"NORMAL":34,
						"TEXCOORD_0":35
					},
					"indices":36,
					"material":1
				}
			]
		},
		{
			"name":"defaultMaterial.001",
			"primitives":[
				{
					"attributes":{
						"POSITION":37,
						"NORMAL":38,
						"TEXCOORD_0":39
					},
					"indices":40,
					"material":1
				}
			]
		},
		{
			"name":"defaultMaterial.008",
			"primitives":[
				{
					"attributes":{
						"POSITION":41,
						"NORMAL":42,
						"TEXCOORD_0":43
					},
					"indices":44,
					"material":1
				}
			]
		},
		{
			"name":"defaultMaterial.003",
			"primitives":[
				{
					"attributes":{
						"POSITION":45,
						"NORMAL":46,
						"TEXCOORD_0":47
					},
					"indices":48,
					"material":2
				}
			]
		}
	],
	"textures":[
		{
			"sampler":0,
			"source":0
		},
		{
			"sampler":0,
			"source":1
		},
		{
			"sampler":0,
			"source":2
		},
		{
			"sampler":0,
			"source":3
		},
		{
			"sampler":0,
			"source":4
		},
		{
			"sampler":0,
			"source":5
		},
		{
			"sampler":0,
			"source":6
		},
		{
			"sampler":0,
			"source":7
		},
		{
			"sampler":0,
			"source":8
		},
		{
			"sampler":0,
			"source":9
		}
	],
	"images":[
		{
			"mimeType":"image/png",
			"name":"MaterialFire_emissive",
			"uri":"MaterialFire_emissive.png"
		},
		{
			"mimeType":"image/png",
			"name":"MaterialFire_baseColor",
			"uri":"MaterialFire_baseColor.png"
		},
		{
			"mimeType":"image/png",
			"name":"MaterialFire_metallicRoughness",
			"uri":"MaterialFire_metallicRoughness.png"
		},
		{
			"mimeType":"image/jpeg",
			"name":"lambert1_emissive",
			"uri":"lambert1_emissive.jpg"
		},
		{
			"mimeType":"image/jpeg",
			"name":"lambert1_normal",
			"uri":"lambert1_normal.jpg"
		},
		{
			"mimeType":"image/png",
			"name":"lambert1_metallicRoughness",
			"uri":"lambert1_metallicRoughness.png"
		},
		{
			"mimeType":"image/jpeg",
			"name":"lambert1_baseColor",
			"uri":"lambert1_baseColor.jpg"
		},
		{
			"mimeType":"image/jpeg",
			"name":"blinn1_normal",
			"uri":"blinn1_normal.jpg"
		},
		{
			"mimeType":"image/png",
			"name":"blinn1_metallicRoughness",
			"uri":"blinn1_metallicRoughness.png"
		},
		{
			"mimeType":"image/png",
			"name":"blinn1_baseColor",
			"uri":"blinn1_baseColor.png"
		}
	],
	"accessors":[
		{
			"bufferView":0,
			"componentType":5126,
			"count":482,
			"max":[
				0.7069600224494934,
				0.4000000059604645,
				3
			],
			"min":[
				-0.31007999181747437,
				-0.4000000059604645,
				0.0004299999854993075
			],
			"type":"VEC3"
		},
		{
			"bufferView":1,
			"componentType":5126,
			"count":482,
			"type":"VEC3"
		},
		{
			"bufferView":2,
			"componentType":5126,
			"count":482,
			"type":"VEC2"
		},
		{
			"bufferView":3,
			"componentType":5123,
			"count":2880,
			"type":"SCALAR"
		},
		{
			"bufferView":4,
			"componentType":5126,
			"count":482,
			"max":[
				0.7069600224494934,
				0.4000000059604645,
				3
			],
			"min":[
				-0.31007999181747437,
				-0.4000000059604645,
				0.0004299999854993075
			],
			"type":"VEC3"
		},
		{
			"bufferView":5,
			"componentType":5126,
			"count":482,
			"type":"VEC3"
		},
		{
			"bufferView":6,
			"componentType":5126,
			"count":482,
			"type":"VEC2"
		},
		{
			"bufferView":7,
			"componentType":5126,
			"count":482,
			"max":[
				0.7069600224494934,
				0.4000000059604645,
				3
			],
			"min":[
				-0.31007999181747437,
				-0.4000000059604645,
				0.0004299999854993075
			],
			"type":"VEC3"
		},
		{
			"bufferView":8,
			"componentType":5126,
			"count":482,
			"type":"VEC3"
		},
		{
			"bufferView":9,
			"componentType":5126,
			"count":482,
			"type":"VEC2"
		},
		{
			"bufferView":10,
			"componentType":5126,
			"count":482,
			"max":[
				0.7069600224494934,
				0.4000000059604645,
				3
			],
			"min":[
				-0.31007999181747437,
				-0.4000000059604645,
				0.0004299999854993075
			],
			"type":"VEC3"
		},
		{
			"bufferView":11,
			"componentType":5126,
			"count":482,
			"type":"VEC3"
		},
		{
			"bufferView":12,
			"componentType":5126,
			"count":482,
			"type":"VEC2"
		},
		{
			"bufferView":13,
			"componentType":5126,
			"count":544,
			"max":[
				0.9070379734039307,
				-0.021182099357247353,
				0.05161390081048012
			],
			"min":[
				-0.9066939949989319,
				-0.1886499971151352,
				-0.771511971950531
			],
			"type":"VEC3"
		},
		{
			"bufferView":14,
			"componentType":5126,
			"count":544,
			"type":"VEC3"
		},
		{
			"bufferView":15,
			"componentType":5126,
			"count":544,
			"type":"VEC2"
		},
		{
			"bufferView":16,
			"componentType":5123,
			"count":2520,
			"type":"SCALAR"
		},
		{
			"bufferView":17,
			"componentType":5126,
			"count":1388,
			"max":[
				0.35751399397850037,
				0.2612060010433197,
				0.9837689995765686
			],
			"min":[
				-0.3590739965438843,
				-0.2612060010433197,
				-0.8131290078163147
			],
			"type":"VEC3"
		},
		{
			"bufferView":18,
			"componentType":5126,
			"count":1388,
			"type":"VEC3"
		},
		{
			"bufferView":19,
			"componentType":5126,
			"count":1388,
			"type":"VEC2"
		},
		{
			"bufferView":20,
			"componentType":5123,
			"count":5664,
			"type":"SCALAR"
		},
		{
			"bufferView":21,
			"componentType":5126,
			"count":378,
			"max":[
				0.15529799461364746,
				0.09736949950456619,
				-0.08715000003576279
			],
			"min":[
				0.08814559876918793,
				0.03235210105776787,
				-0.14422999322414398
			],
			"type":"VEC3"
		},
		{
			"bufferView":22,
			"componentType":5126,
			"count":378,
			"type":"VEC3"
		},
		{
			"bufferView":23,
			"componentType":5126,
			"count":378,
			"type":"VEC2"
		},
		{
			"bufferView":24,
			"componentType":5123,
			"count":1512,
			"type":"SCALAR"
		},
		{
			"bufferView":25,
			"componentType":5126,
			"count":400,
			"max":[
				0.33731698989868164,
				-0.07178010046482086,
				0.26806798577308655
			],
			"min":[
				-0.33548998832702637,
				-0.12451600283384323,
				0.12873199582099915
			],
			"type":"VEC3"
		},
		{
			"bufferView":26,
			"componentType":5126,
			"count":400,
			"type":"VEC3"
		},
		{
			"bufferView":27,
			"componentType":5126,
			"count":400,
			"type":"VEC2"
		},
		{
			"bufferView":28,
			"componentType":5123,
			"count":1224,
			"type":"SCALAR"
		},
		{
			"bufferView":29,
			"componentType":5126,
			"count":802,
			"max":[
				0.20981399714946747,
				0.11315999925136566,
				0.8461589813232422
			],
			"min":[
				-0.2079859972000122,
				-0.13492600619792938,
				-0.13908399641513824
			],
			"type":"VEC3"
		},
		{
			"bufferView":30,
			"componentType":5126,
			"count":802,
			"type":"VEC3"
		},
		{
			"bufferView":31,
			"componentType":5126,
			"count":802,
			"type":"VEC2"
		},
		{
			"bufferView":32,
			"componentType":5123,
			"count":2940,
			"type":"SCALAR"
		},
		{
			"bufferView":33,
			"componentType":5126,
			"count":813,
			"max":[
				0.2389640063047409,
				0.15540899336338043,
				-0.5598589777946472
			],
			"min":[
				-0.24052800238132477,
				-0.21915499866008759,
				-0.7356299757957458
			],
			"type":"VEC3"
		},
		{
			"bufferView":34,
			"componentType":5126,
			"count":813,
			"type":"VEC3"
		},
		{
			"bufferView":35,
			"componentType":5126,
			"count":813,
			"type":"VEC2"
		},
		{
			"bufferView":36,
			"componentType":5123,
			"count":3252,
			"type":"SCALAR"
		},
		{
			"bufferView":37,
			"componentType":5126,
			"count":766,
			"max":[
				0.18077699840068817,
				0.1507589966058731,
				-0.2333730012178421
			],
			"min":[
				-0.17972099781036377,
				-0.06593059748411179,
				-0.3672960102558136
			],
			"type":"VEC3"
		},
		{
			"bufferView":38,
			"componentType":5126,
			"count":766,
			"type":"VEC3"
		},
		{
			"bufferView":39,
			"componentType":5126,
			"count":766,
			"type":"VEC2"
		},
		{
			"bufferView":40,
			"componentType":5123,
			"count":3768,
			"type":"SCALAR"
		},
		{
			"bufferView":41,
			"componentType":5126,
			"count":388,
			"max":[
				1,
				-0.1138719990849495,
				-0.1976490020751953
			],
			"min":[
				-1,
				-0.23243099451065063,
				-0.9837689995765686
			],
			"type":"VEC3"
		},
		{
			"bufferView":42,
			"componentType":5126,
			"count":388,
			"type":"VEC3"
		},
		{
			"bufferView":43,
			"componentType":5126,
			"count":388,
			"type":"VEC2"
		},
		{
			"bufferView":44,
			"componentType":5123,
			"count":1608,
			"type":"SCALAR"
		},
		{
			"bufferView":45,
			"componentType":5126,
			"count":54,
			"max":[
				0.22272999584674835,
				0.25210699439048767,
				0.11399099975824356
			],
			"min":[
				-0.22356800734996796,
				0.0382625013589859,
				-0.5446439981460571
			],
			"type":"VEC3"
		},
		{
			"bufferView":46,
			"componentType":5126,
			"count":54,
			"type":"VEC3"
		},
		{
			"bufferView":47,
			"componentType":5126,
			"count":54,
			"type":"VEC2"
		},
		{
			"bufferView":48,
			"componentType":5123,
			"count":240,
			"type":"SCALAR"
		},
		{
			"bufferView":49,
			"componentType":5126,
			"count":250,
			"max":[
				10.416666666666666
			],
			"min":[
				0.041666666666666664
			],
			"type":"SCALAR"
		},
		{
			"bufferView":50,
			"componentType":5126,
			"count":250,
			"type":"VEC4"
		},
		{
			"bufferView":51,
			"componentType":5126,
			"count":250,
			"type":"VEC3"
		},
		{
			"bufferView":52,
			"componentType":5126,
			"count":250,
			"type":"VEC4"
		},
		{
			"bufferView":53,
			"componentType":5126,
			"count":250,
			"type":"VEC3"
		},
		{
			"bufferView":54,
			"componentType":5126,
			"count":250,
			"type":"VEC4"
		},
		{
			"bufferView":55,
			"componentType":5126,
			"count":250,
			"type":"VEC3"
		},
		{
			"bufferView":56,
			"componentType":5126,
			"count":250,
			"type":"VEC4"
		},
		{
			"bufferView":57,
			"componentType":5126,
			"count":250,
			"type":"VEC3"
		}
	],
	"bufferViews":[
		{
			"buffer":0,
			"byteLength":5784,
			"byteOffset":0,
			"target":34962
		},
		{
			"buffer":0,
			"byteLength":5784,
			"byteOffset":5784,
			"target":34962
		},
		{
			"buffer":0,
			"byteLength":3856,
			"byteOffset":11568,
			"target":34962
		},
		{
			"buffer":0,
			"byteLength":5760,
			"byteOffset":15424,
			"target":34963
		},
		{
			"buffer":0,
			"byteLength":5784,
			"byteOffset":21184,
			"target":34962
		},
		{
			"buffer":0,
			"byteLength":5784,
			"byteOffset":26968,
			"target":34962
		},
		{
			"buffer":0,
			"byteLength":3856,
			"byteOffset":32752,
			"target":34962
		},
		{
			"buffer":0,
			"byteLength":5784,
			"byteOffset":36608,
			"target":34962
		},
		{
			"buffer":0,
			"byteLength":5784,
			"byteOffset":42392,
			"target":34962
		},
		{
			"buffer":0,
			"byteLength":3856,
			"byteOffset":48176,
			"target":34962
		},
		{
			"buffer":0,
			"byteLength":5784,
			"byteOffset":52032,
			"target":34962
		},
		{
			"buffer":0,
			"byteLength":5784,
			"byteOffset":57816,
			"target":34962
		},
		{
			"buffer":0,
			"byteLength":3856,
			"byteOffset":63600,
			"target":34962
		},
		{
			"buffer":0,
			"byteLength":6528,
			"byteOffset":67456,
			"target":34962
		},
		{
			"buffer":0,
			"byteLength":6528,
			"byteOffset":73984,
			"target":34962
		},
		{
			"buffer":0,
			"byteLength":4352,
			"byteOffset":80512,
			"target":34962
		},
		{
			"buffer":0,
			"byteLength":5040,
			"byteOffset":84864,
			"target":34963
		},
		{
			"buffer":0,
			"byteLength":16656,
			"byteOffset":89904,
			"target":34962
		},
		{
			"buffer":0,
			"byteLength":16656,
			"byteOffset":106560,
			"target":34962
		},
		{
			"buffer":0,
			"byteLength":11104,
			"byteOffset":123216,
			"target":34962
		},
		{
			"buffer":0,
			"byteLength":11328,
			"byteOffset":134320,
			"target":34963
		},
		{
			"buffer":0,
			"byteLength":4536,
			"byteOffset":145648,
			"target":34962
		},
		{
			"buffer":0,
			"byteLength":4536,
			"byteOffset":150184,
			"target":34962
		},
		{
			"buffer":0,
			"byteLength":3024,
			"byteOffset":154720,
			"target":34962
		},
		{
			"buffer":0,
			"byteLength":3024,
			"byteOffset":157744,
			"target":34963
		},
		{
			"buffer":0,
			"byteLength":4800,
			"byteOffset":160768,
			"target":34962
		},
		{
			"buffer":0,
			"byteLength":4800,
			"byteOffset":165568,
			"target":34962
		},
		{
			"buffer":0,
			"byteLength":3200,
			"byteOffset":170368,
			"target":34962
		},
		{
			"buffer":0,
			"byteLength":2448,
			"byteOffset":173568,
			"target":34963
		},
		{
			"buffer":0,
			"byteLength":9624,
			"byteOffset":176016,
			"target":34962
		},
		{
			"buffer":0,
			"byteLength":9624,
			"byteOffset":185640,
			"target":34962
		},
		{
			"buffer":0,
			"byteLength":6416,
			"byteOffset":195264,
			"target":34962
		},
		{
			"buffer":0,
			"byteLength":5880,
			"byteOffset":201680,
			"target":34963
		},
		{
			"buffer":0,
			"byteLength":9756,
			"byteOffset":207560,
			"target":34962
		},
		{
			"buffer":0,
			"byteLength":9756,
			"byteOffset":217316,
			"target":34962
		},
		{
			"buffer":0,
			"byteLength":6504,
			"byteOffset":227072,
			"target":34962
		},
		{
			"buffer":0,
			"byteLength":6504,
			"byteOffset":233576,
			"target":34963
		},
		{
			"buffer":0,
			"byteLength":9192,
			"byteOffset":240080,
			"target":34962
		},
		{
			"buffer":0,
			"byteLength":9192,
			"byteOffset":249272,
			"target":34962
		},
		{
			"buffer":0,
			"byteLength":6128,
			"byteOffset":258464,
			"target":34962
		},
		{
			"buffer":0,
			"byteLength":7536,
			"byteOffset":264592,
			"target":34963
		},
		{
			"buffer":0,
			"byteLength":4656,
			"byteOffset":272128,
			"target":34962
		},
		{
			"buffer":0,
			"byteLength":4656,
			"byteOffset":276784,
			"target":34962
		},
		{
			"buffer":0,
			"byteLength":3104,
			"byteOffset":281440,
			"target":34962
		},
		{
			"buffer":0,
			"byteLength":3216,
			"byteOffset":284544,
			"target":34963
		},
		{
			"buffer":0,
			"byteLength":648,
			"byteOffset":287760,
			"target":34962
		},
		{
			"buffer":0,
			"byteLength":648,
			"byteOffset":288408,
			"target":34962
		},
		{
			"buffer":0,
			"byteLength":432,
			"byteOffset":289056,
			"target":34962
		},
		{
			"buffer":0,
			"byteLength":480,
			"byteOffset":289488,
			"target":34963
		},
		{
			"buffer":0,
			"byteLength":1000,
			"byteOffset":289968
		},
		{
			"buffer":0,
			"byteLength":4000,
			"byteOffset":290968
		},
		{
			"buffer":0,
			"byteLength":3000,
			"byteOffset":294968
		},
		{
			"buffer":0,
			"byteLength":4000,
			"byteOffset":297968
		},
		{
			"buffer":0,
			"byteLength":3000,
			"byteOffset":301968
		},
		{
			"buffer":0,
			"byteLength":4000,
			"byteOffset":304968
		},
		{
			"buffer":0,
			"byteLength":3000,
			"byteOffset":308968
		},
		{
			"buffer":0,
			"byteLength":4000,
			"byteOffset":311968
		},
		{
			"buffer":0,
			"byteLength":3000,
			"byteOffset":315968
		}
	],
	"samplers":[
		{
			"magFilter":9729,
			"minFilter":9987
		}
	],
	"buffers":[
		{
			"byteLength":318968,
			"uri":"scene.bin"
		}
	]
}
